<svg width="220" height="220" viewBox="0 0 220 220" fill="none" xmlns="http://www.w3.org/2000/svg">
<g opacity="0.4">
<path d="M110 220C170.751 220 220 170.751 220 110C220 49.2487 170.751 0 110 0C49.2487 0 0 49.2487 0 110C0 170.751 49.2487 220 110 220Z" fill="white" fill-opacity="0.4"/>
<path d="M48.7143 171.286C32.2143 154.786 23.5714 132.786 23.5714 111.571L109.214 196.429C87.2143 195.643 65.2143 187.786 48.7143 171.286ZM128.857 194.071L25.9286 91.1428C34.5714 52.6428 69.1429 23.5714 110 23.5714C139.071 23.5714 164.214 37.7143 179.929 58.9286L168.143 69.1428C154.786 51.0714 133.571 39.2857 110 39.2857C79.3571 39.2857 53.4286 58.9286 43.2143 86.4286L133.571 176.786C156.357 168.929 173.643 149.286 179.143 125.714H141.429V110H196.429C196.429 150.857 167.357 185.429 128.857 194.071Z" fill="white"/>
</g>
</svg>
