<svg width="220" height="220" viewBox="0 0 220 220" fill="none" xmlns="http://www.w3.org/2000/svg">
<g opacity="0.4">
<path d="M220 110.082C220 95.5081 201.749 81.6964 173.767 73.1314C180.224 44.6112 177.354 21.9206 164.709 14.6561C161.794 12.952 158.386 12.1448 154.664 12.1448V22.1448C156.726 22.1448 158.386 22.5484 159.776 23.3108C165.874 26.8085 168.52 40.1269 166.457 57.257C165.964 61.4722 165.157 65.9117 164.17 70.4408C155.381 68.2884 145.785 66.6292 135.695 65.5529C129.641 57.257 123.363 49.7233 117.04 43.1314C131.659 29.544 145.381 22.1 154.709 22.1V12.1C142.377 12.1 126.233 20.8892 109.91 36.1359C93.5874 20.9789 77.4439 12.2794 65.1121 12.2794V22.2794C74.3946 22.2794 88.1614 29.6785 102.78 43.1762C96.5022 49.7682 90.2242 57.257 84.2601 65.5529C74.1256 66.6292 64.5292 68.2883 55.7399 70.4857C54.7085 66.0014 53.9462 61.6516 53.4081 57.4812C51.3004 40.3511 53.9013 27.0327 59.9552 23.4901C61.3004 22.683 63.0493 22.3242 65.1121 22.3242V12.3242C61.3453 12.3242 57.9372 13.1314 54.9776 14.8354C42.3767 22.1 39.5516 44.7457 46.0538 73.1762C18.1614 81.7861 0 95.5529 0 110.082C0 124.656 18.2511 138.468 46.2332 147.033C39.7758 175.553 42.6457 198.243 55.2915 205.508C58.2063 207.212 61.6144 208.019 65.3812 208.019C77.713 208.019 93.8565 199.23 110.179 183.983C126.502 199.14 142.646 207.84 154.978 207.84C158.744 207.84 162.152 207.033 165.112 205.329C177.713 198.064 180.538 175.418 174.036 146.988C201.839 138.423 220 124.611 220 110.082ZM161.614 80.1718C159.955 85.9565 157.892 91.9206 155.561 97.8848C153.722 94.2973 151.794 90.7099 149.686 87.1224C147.623 83.535 145.426 80.0372 143.229 76.6292C149.596 77.5709 155.74 78.7368 161.614 80.1718ZM141.076 127.93C137.578 133.983 133.991 139.723 130.269 145.06C123.587 145.643 116.816 145.957 110 145.957C103.229 145.957 96.4574 145.643 89.8206 145.104C86.0987 139.768 82.4664 134.073 78.9686 128.064C75.5605 122.19 72.4664 116.226 69.6413 110.217C72.4215 104.208 75.5605 98.1987 78.9238 92.3242C82.4215 86.2704 86.009 80.5305 89.7309 75.1942C96.4126 74.6112 103.184 74.2973 110 74.2973C116.771 74.2973 123.543 74.6112 130.179 75.1493C133.901 80.4857 137.534 86.1807 141.031 92.1897C144.439 98.0641 147.534 104.028 150.359 110.037C147.534 116.046 144.439 122.055 141.076 127.93ZM155.561 122.1C157.982 128.109 160.045 134.118 161.749 139.948C155.874 141.383 149.686 142.593 143.274 143.535C145.471 140.082 147.668 136.539 149.731 132.907C151.794 129.32 153.722 125.687 155.561 122.1ZM110.09 169.948C105.919 165.643 101.749 160.844 97.6233 155.598C101.659 155.777 105.785 155.912 109.955 155.912C114.17 155.912 118.341 155.822 122.422 155.598C118.386 160.844 114.215 165.643 110.09 169.948ZM76.7265 143.535C70.3587 142.593 64.2152 141.427 58.3408 139.992C60 134.208 62.0628 128.244 64.3946 122.279C66.2332 125.867 68.1614 129.454 70.2691 133.042C72.3767 136.629 74.5291 140.127 76.7265 143.535ZM109.865 50.2166C114.036 54.5215 118.206 59.3197 122.332 64.5664C118.296 64.387 114.17 64.2525 110 64.2525C105.785 64.2525 101.614 64.3422 97.5336 64.5664C101.57 59.3197 105.74 54.5215 109.865 50.2166ZM76.6816 76.6292C74.4843 80.0821 72.287 83.6247 70.2242 87.257C68.1614 90.8444 66.2332 94.4318 64.3946 98.0193C61.9731 92.0103 59.9103 86.0014 58.2063 80.1718C64.0807 78.7816 70.2691 77.5709 76.6816 76.6292ZM36.0987 132.773C20.2242 126.001 9.95516 117.122 9.95516 110.082C9.95516 103.042 20.2242 94.1179 36.0987 87.3915C39.9552 85.7323 44.1704 84.2525 48.5202 82.8623C51.0762 91.6516 54.4395 100.8 58.6099 110.172C54.4843 119.499 51.1659 128.602 48.6547 137.347C44.2153 135.957 40 134.432 36.0987 132.773ZM60.2242 196.853C54.1256 193.356 51.4798 180.037 53.5426 162.907C54.0359 158.692 54.8431 154.252 55.8296 149.723C64.6188 151.876 74.2153 153.535 84.3049 154.611C90.3588 162.907 96.6368 170.441 102.96 177.033C88.3408 190.62 74.6188 198.064 65.2915 198.064C63.2735 198.019 61.5695 197.616 60.2242 196.853ZM166.592 162.683C168.7 179.813 166.099 193.131 160.045 196.674C158.7 197.481 156.951 197.84 154.888 197.84C145.605 197.84 131.839 190.441 117.22 176.943C123.498 170.351 129.776 162.862 135.74 154.566C145.874 153.49 155.471 151.831 164.26 149.634C165.291 154.163 166.099 158.513 166.592 162.683ZM183.857 132.773C180 134.432 175.785 135.912 171.435 137.302C168.879 128.513 165.516 119.365 161.345 109.992C165.471 100.665 168.789 91.5619 171.3 82.8175C175.74 84.2076 179.955 85.7323 183.901 87.3915C199.776 94.1628 210.045 103.042 210.045 110.082C210 117.122 199.731 126.046 183.857 132.773Z" fill="white"/>
<path d="M109.955 130.575C121.273 130.575 130.448 121.4 130.448 110.082C130.448 98.764 121.273 89.5888 109.955 89.5888C98.637 89.5888 89.4619 98.764 89.4619 110.082C89.4619 121.4 98.637 130.575 109.955 130.575Z" fill="white"/>
</g>
</svg>
