<svg width="50" height="50" viewBox="0 0 50 50" fill="none" xmlns="http://www.w3.org/2000/svg">
<path id="github" fill-rule="evenodd" clip-rule="evenodd" d="M25 1C11.1875 1 0 12.1875 0 26C0 37.0625 7.15625 46.4062 17.0938 49.7188C18.3438 49.9375 18.8125 49.1875 18.8125 48.5312C18.8125 47.9375 18.7812 45.9688 18.7812 43.875C12.5 45.0312 10.875 42.3438 10.375 40.9375C10.0938 40.2188 8.875 38 7.8125 37.4062C6.9375 36.9375 5.6875 35.7812 7.78125 35.75C9.75 35.7188 11.1562 37.5625 11.625 38.3125C13.875 42.0938 17.4688 41.0312 18.9062 40.375C19.125 38.75 19.7812 37.6562 20.5 37.0312C14.9375 36.4062 9.125 34.25 9.125 24.6875C9.125 21.9688 10.0938 19.7188 11.6875 17.9688C11.4375 17.3438 10.5625 14.7812 11.9375 11.3438C11.9375 11.3438 14.0312 10.6875 18.8125 13.9062C20.8125 13.3438 22.9375 13.0625 25.0625 13.0625C27.1875 13.0625 29.3125 13.3438 31.3125 13.9062C36.0938 10.6562 38.1875 11.3438 38.1875 11.3438C39.5625 14.7812 38.6875 17.3438 38.4375 17.9688C40.0312 19.7188 41 21.9375 41 24.6875C41 34.2812 35.1562 36.4062 29.5938 37.0312C30.5 37.8125 31.2812 39.3125 31.2812 41.6562C31.2812 45 31.25 47.6875 31.25 48.5312C31.25 49.1875 31.7188 49.9688 32.9688 49.7188C42.8438 46.4062 50 37.0312 50 26C50 12.1875 38.8125 1 25 1Z" />
</svg>
