<svg width="50" height="50" viewBox="0 0 50 50" fill="none" xmlns="http://www.w3.org/2000/svg">
<path id="twitter" d="M15.724 45.6276C34.592 45.6276 44.912 29.9956 44.912 16.4396C44.912 15.9956 44.912 15.5536 44.882 15.1136C46.8897 13.6614 48.6227 11.8634 50 9.8036C48.1278 10.6332 46.1417 11.1773 44.108 11.4176C46.2495 10.1356 47.8522 8.11914 48.618 5.7436C46.6043 6.93851 44.4013 7.78063 42.104 8.2336C40.5573 6.58897 38.5117 5.49994 36.2837 5.13503C34.0558 4.77012 31.7696 5.14967 29.7791 6.21496C27.7886 7.28025 26.2046 8.97188 25.2724 11.0281C24.3401 13.0843 24.1115 15.3904 24.622 17.5896C20.5435 17.3851 16.5536 16.3253 12.9113 14.4788C9.26897 12.6323 6.05567 10.0405 3.48 6.8716C2.16818 9.12992 1.7664 11.8033 2.35646 14.3475C2.94651 16.8916 4.48405 19.1153 6.656 20.5656C5.02348 20.5172 3.42656 20.0768 2 19.2816C2 19.3236 2 19.3676 2 19.4116C2.00065 21.78 2.82052 24.0753 4.32056 25.9082C5.82061 27.7411 7.90846 28.9986 10.23 29.4676C8.71974 29.8795 7.13516 29.9397 5.598 29.6436C6.25352 31.6819 7.52973 33.4644 9.24814 34.7418C10.9666 36.0191 13.0412 36.7274 15.182 36.7676C11.5495 39.6225 7.06212 41.1723 2.442 41.1676C1.62581 41.166 0.810408 41.1166 0 41.0196C4.69127 44.0302 10.1498 45.627 15.724 45.6196" />
</svg>
